<?xml version="1.0" encoding="utf-8"?>
<!-- Generator: Adobe Illustrator 23.0.3, SVG Export Plug-In . SVG Version: 6.00 Build 0)  -->
<svg version="1.1" id="Laag_1" xmlns="http://www.w3.org/2000/svg" xmlns:xlink="http://www.w3.org/1999/xlink" x="0px" y="0px"
	 viewBox="0 0 112.58 128.84" style="enable-background:new 0 0 112.58 128.84;" xml:space="preserve">
<style type="text/css">
	.st0{fill:#FFFFFF;}
	.st1{fill:none;}
</style>
<g>
	<path class="st0" d="M112.53,64.64c0,9.83-0.06,19.66,0.04,29.48c0.02,2.12-0.73,3.29-2.54,4.33
		c-17.2,9.85-34.35,19.76-51.49,29.72c-1.59,0.92-2.8,0.87-4.35-0.04c-17.21-9.99-34.44-19.95-51.7-29.85
		c-1.71-0.98-2.5-2.09-2.5-4.13c0.06-19.82,0.06-39.64,0-59.47c-0.01-2.02,0.74-3.16,2.46-4.15c17.26-9.9,34.5-19.84,51.7-29.85
		c1.68-0.97,2.93-0.89,4.57,0.06C75.79,10.68,92.87,20.55,110,30.34c1.95,1.11,2.6,2.39,2.57,4.57
		C112.47,44.82,112.53,54.73,112.53,64.64z M107.74,64.66c0-9.08-0.05-18.16,0.04-27.24c0.02-2.01-0.71-3.16-2.45-4.15
		C89.69,24.36,74.1,15.4,58.54,6.37C56.95,5.45,55.77,5.5,54.2,6.4c-15.71,9.1-31.45,18.14-47.22,27.15
		c-1.4,0.8-2.04,1.73-2.04,3.36c0.03,18.33,0.03,36.66,0,54.99c0,1.62,0.63,2.56,2.03,3.36c15.76,9.01,31.51,18.05,47.22,27.15
		c1.56,0.9,2.74,0.96,4.33,0.04c15.64-9.06,31.31-18.06,47.01-27.01c1.7-0.97,2.24-2.17,2.23-4.03
		C107.7,82.49,107.74,73.58,107.74,64.66z"/>
	<path class="st1" d="M107.74,64.66c0,8.91-0.03,17.83,0.03,26.74c0.01,1.85-0.53,3.06-2.23,4.03
		c-15.7,8.95-31.37,17.95-47.01,27.01c-1.59,0.92-2.77,0.87-4.33-0.04c-15.71-9.1-31.45-18.14-47.22-27.15
		c-1.4-0.8-2.03-1.74-2.03-3.36c0.03-18.33,0.03-36.66,0-54.99c0-1.62,0.64-2.56,2.04-3.36C22.75,24.55,38.49,15.51,54.2,6.4
		c1.56-0.91,2.74-0.95,4.33-0.03c15.56,9.02,31.16,17.99,46.79,26.9c1.74,0.99,2.47,2.14,2.45,4.15
		C107.69,46.5,107.74,55.58,107.74,64.66z M67.25,44.22c0.98-2.17-1.6-2.09-2.8-3.11c-5.41-4.6-10.67-4.42-16.2-0.05
		c-1.57,1.24-2.85,2.15-2.53,4.3c0.24,1.56-0.53,2.49-1.92,3.1c-0.91,0.4-1.7,1.11-2.63,1.42c-6.22,2.03-8.77,6.15-7.46,12.63
		c0.39,1.9-0.44,3.23-2.28,3.88c-2.14,0.76-2.35,2.37-2.7,4.45c-1.16,6.99,1.43,11.33,8.09,13.59c1.66,0.56,3.01,1.65,4.84,0.43
		c0.46-0.31,1.58,0.06,2.24,0.41c3.45,1.84,6.9,3.7,10.26,5.7c1.54,0.92,2.8,0.98,4.37,0.04c3.35-2.01,6.8-3.88,10.25-5.72
		c0.67-0.36,1.81-0.76,2.25-0.45c1.94,1.37,3.43,0.39,5.04-0.54c2.02-1.16,4.17-2.13,6.06-3.47c0.85-0.6,1.62-1.87,1.71-2.9
		c0.25-2.73-0.06-5.5,0.18-8.23c0.14-1.57-0.29-2.32-1.7-2.78c-2.55-0.83-3.69-2.49-3.33-5.28c0.23-1.8-0.03-3.66,0.06-5.49
		c0.08-1.54-0.55-2.46-1.89-3.16c-2.73-1.42-5.35-3.06-8.11-4.43C67.37,47.7,66.74,46.53,67.25,44.22z"/>
	<path class="st0" d="M67.25,44.22c-0.51,2.32,0.12,3.49,1.82,4.33c2.75,1.37,5.38,3.01,8.11,4.43c1.34,0.7,1.97,1.62,1.89,3.16
		c-0.1,1.83,0.17,3.69-0.06,5.49c-0.36,2.79,0.78,4.46,3.33,5.28c1.41,0.46,1.83,1.21,1.7,2.78c-0.24,2.73,0.07,5.51-0.18,8.23
		c-0.09,1.03-0.86,2.29-1.71,2.9c-1.89,1.34-4.04,2.31-6.06,3.47c-1.61,0.93-3.1,1.9-5.04,0.54c-0.44-0.31-1.58,0.09-2.25,0.45
		c-3.45,1.85-6.9,3.71-10.25,5.72c-1.57,0.94-2.82,0.88-4.37-0.04c-3.36-2-6.81-3.86-10.26-5.7c-0.66-0.35-1.78-0.72-2.24-0.41
		c-1.84,1.22-3.18,0.14-4.84-0.43c-6.66-2.26-9.25-6.61-8.09-13.59c0.35-2.08,0.56-3.7,2.7-4.45c1.84-0.65,2.67-1.97,2.28-3.88
		c-1.32-6.48,1.24-10.6,7.46-12.63c0.93-0.3,1.72-1.01,2.63-1.42c1.38-0.61,2.15-1.55,1.92-3.1c-0.32-2.15,0.96-3.06,2.53-4.3
		c5.53-4.37,10.79-4.55,16.2,0.05C65.65,42.12,68.23,42.05,67.25,44.22z M66.87,50c1.31,5.05-1.99,6.07-4.77,7.51
		c-0.15,0.08-0.31,0.14-0.43,0.24c-3.47,2.85-6.82,2.87-10.49,0.12c-2.61-1.96-6.58-2.57-5.38-7.83c-3.47,1.94-6.28,3.49-9.07,5.09
		c-0.32,0.18-0.68,0.63-0.68,0.96c-0.06,2.42-0.03,4.85-0.03,7.43c3.9-1.51,3.9-1.51,7.25,0.37c0.51,0.29,0.98,0.68,1.52,0.85
		c4.77,1.47,6.08,4.61,5.75,9.51c-0.25,3.76-0.39,6.87-4.57,8.13c-0.25,0.08-0.42,0.43-0.78,0.82c3.49,1.94,6.81,3.81,10.17,5.62
		c0.46,0.25,1.21,0.42,1.61,0.21c3.55-1.88,7.06-3.84,10.94-5.99c-1.24-0.74-1.97-1.32-2.79-1.64c-2.19-0.84-2.95-2.33-2.73-4.65
		c0.19-2.06,0.16-4.16,0.01-6.23c-0.14-1.9,0.46-3.12,2.23-3.96c2.25-1.08,4.41-2.34,6.55-3.62c1.35-0.81,2.56-1.03,3.92-0.07
		c0.41,0.29,1,0.33,1.75,0.55c0-2.43,0.08-4.58-0.05-6.73c-0.04-0.62-0.54-1.44-1.07-1.76C73.09,53.38,70.37,51.94,66.87,50z
		 M74.65,81.91c6.27-1.53,8.82-5.82,6.45-10.87C74.45,73.51,73.43,75.22,74.65,81.91z M47.96,45.72c0,2.32-0.04,4.37,0.03,6.42
		c0.02,0.51,0.29,1.23,0.68,1.47c1.95,1.19,3.97,2.24,6.03,3.38C56.51,50.71,54.91,47.99,47.96,45.72z M57.99,56.66
		c6.16-1.58,8.33-5.26,6.36-10.78C57.89,47.99,56.28,50.71,57.99,56.66z M31.65,70.83C29.62,76.7,32.29,81,38.41,81.86
		c0-2.09,0.06-4.16-0.04-6.22c-0.03-0.56-0.4-1.34-0.85-1.62C35.62,72.88,33.64,71.89,31.65,70.83z M49.76,43.25
		c5.19,4.3,8.95,4.25,13.15-0.05C57.17,38.94,55.89,38.94,49.76,43.25z M46.19,68.59c-5.25-4.36-8.65-4.33-13.08,0
		C38.28,72.83,40.34,72.85,46.19,68.59z M66.72,68.55c4.93,4.21,8.32,4.2,12.94-0.04C74.69,64.2,71.53,64.21,66.72,68.55z
		 M41.16,81.89c6.15-1.54,8.32-5.24,6.32-10.75C41.12,73.14,39.63,75.68,41.16,81.89z M65.2,71.18c-1.63,5.96,0.6,9.59,6.53,10.66
		C72.88,75.17,71.38,72.73,65.2,71.18z"/>
	<path class="st1" d="M66.87,50c3.5,1.94,6.22,3.38,8.85,4.95c0.53,0.32,1.03,1.14,1.07,1.76c0.13,2.15,0.05,4.3,0.05,6.73
		c-0.75-0.23-1.34-0.26-1.75-0.55c-1.36-0.97-2.57-0.74-3.92,0.07c-2.14,1.29-4.3,2.55-6.55,3.62c-1.77,0.85-2.37,2.06-2.23,3.96
		c0.15,2.07,0.19,4.17-0.01,6.23c-0.22,2.31,0.54,3.81,2.73,4.65c0.82,0.31,1.55,0.9,2.79,1.64c-3.88,2.14-7.39,4.11-10.94,5.99
		c-0.4,0.21-1.16,0.04-1.61-0.21c-3.36-1.81-6.68-3.68-10.17-5.62c0.36-0.39,0.53-0.75,0.78-0.82c4.18-1.26,4.32-4.37,4.57-8.13
		c0.33-4.9-0.98-8.04-5.75-9.51c-0.54-0.17-1.01-0.56-1.52-0.85c-3.35-1.89-3.35-1.89-7.25-0.37c0-2.58-0.03-5.01,0.03-7.43
		c0.01-0.33,0.37-0.78,0.68-0.96c2.79-1.6,5.6-3.15,9.07-5.09c-1.21,5.26,2.77,5.88,5.38,7.83c3.67,2.75,7.02,2.73,10.49-0.12
		c0.13-0.1,0.29-0.17,0.43-0.24C64.88,56.08,68.18,55.05,66.87,50z"/>
	<path class="st1" d="M74.65,81.91c-1.22-6.7-0.21-8.4,6.45-10.87C83.47,76.1,80.93,80.38,74.65,81.91z"/>
	<path class="st1" d="M47.96,45.72c6.95,2.27,8.55,4.99,6.74,11.27c-2.06-1.14-4.08-2.19-6.03-3.38c-0.39-0.24-0.66-0.96-0.68-1.47
		C47.91,50.09,47.96,48.04,47.96,45.72z"/>
	<path class="st1" d="M57.99,56.66c-1.71-5.95-0.11-8.67,6.36-10.78C66.33,51.39,64.16,55.07,57.99,56.66z"/>
	<path class="st1" d="M31.65,70.83c1.99,1.06,3.97,2.05,5.86,3.2c0.46,0.28,0.82,1.05,0.85,1.62c0.1,2.06,0.04,4.13,0.04,6.22
		C32.29,81,29.62,76.7,31.65,70.83z"/>
	<path class="st1" d="M49.76,43.25c6.13-4.32,7.41-4.31,13.15-0.05C58.71,47.51,54.95,47.56,49.76,43.25z"/>
	<path class="st1" d="M46.19,68.59c-5.85,4.26-7.91,4.25-13.08,0C37.55,64.26,40.94,64.22,46.19,68.59z"/>
	<path class="st1" d="M66.72,68.55c4.81-4.33,7.97-4.34,12.94-0.04C75.04,72.75,71.64,72.76,66.72,68.55z"/>
	<path class="st1" d="M41.16,81.89c-1.53-6.21-0.04-8.75,6.32-10.75C49.48,76.65,47.31,80.35,41.16,81.89z"/>
	<path class="st1" d="M65.2,71.18c6.18,1.55,7.67,3.99,6.53,10.66C65.8,80.78,63.57,77.14,65.2,71.18z"/>
</g>
</svg>
